<svg id="Layer_1" data-name="Layer 1" xmlns="http://www.w3.org/2000/svg" viewBox="0 0 1000 1400"><defs><style>.cls-1,.cls-2,.cls-3{fill:none;stroke:#000;stroke-linecap:round;stroke-miterlimit:10;}.cls-1,.cls-2{stroke-width:5px;}.cls-2{stroke-dasharray:0 10.17;}.cls-18,.cls-4{fill:gray;}.cls-5{font-size:18px;}.cls-13,.cls-18,.cls-5{font-family:MyriadPro-Regular, Myriad Pro;}.cls-6{letter-spacing:-0.01em;}.cls-7{letter-spacing:0em;}.cls-8{letter-spacing:-0.01em;}.cls-9{letter-spacing:0em;}.cls-10{letter-spacing:-0.03em;}.cls-11{letter-spacing:0em;}.cls-12{letter-spacing:0em;}.cls-13{font-size:24px;}.cls-14{letter-spacing:0em;}.cls-15{letter-spacing:0em;}.cls-16{letter-spacing:0em;}.cls-17{letter-spacing:0em;}.cls-18{font-size:16px;}.cls-19{letter-spacing:0em;}.cls-20{letter-spacing:0em;}.cls-21{letter-spacing:-0.01em;}.cls-22{letter-spacing:0em;}.cls-23{letter-spacing:0.01em;}.cls-24{letter-spacing:-0.01em;}.cls-25{letter-spacing:0em;}.cls-26{letter-spacing:0.01em;}.cls-27{letter-spacing:0em;}.cls-28{letter-spacing:-0.01em;}.cls-29{letter-spacing:-0.01em;}.cls-30{letter-spacing:-0.07em;}.cls-31{letter-spacing:0.01em;}.cls-32{letter-spacing:-0.01em;}.cls-33{letter-spacing:0em;}.cls-34{letter-spacing:0.03em;}.cls-35{letter-spacing:-0.07em;}.cls-36{letter-spacing:0.02em;}.cls-37{letter-spacing:0.01em;}.cls-38{letter-spacing:-0.01em;}.cls-39{letter-spacing:0.01em;}.cls-40{letter-spacing:0em;}.cls-41{letter-spacing:-0.01em;}.cls-42{letter-spacing:0.01em;}.cls-43{letter-spacing:-0.01em;}.cls-44{letter-spacing:-0.01em;}.cls-45{letter-spacing:0em;}.cls-46{letter-spacing:-0.01em;}.cls-47{letter-spacing:-0.01em;}.cls-48{letter-spacing:-0.04em;}.cls-49{letter-spacing:0.02em;}.cls-50{letter-spacing:-0.03em;}.cls-51{letter-spacing:-0.01em;}.cls-52{letter-spacing:-0.08em;}.cls-53{letter-spacing:0.01em;}.cls-54{letter-spacing:-0.01em;}.cls-55{letter-spacing:0em;}.cls-56{letter-spacing:-0.01em;}.cls-57{letter-spacing:0em;}.cls-58{letter-spacing:0.03em;}.cls-59{letter-spacing:-0.01em;}.cls-60{letter-spacing:0em;}.cls-61{letter-spacing:0.02em;}.cls-62{letter-spacing:-0.01em;}.cls-63{letter-spacing:0.02em;}</style></defs><title>Artboard 1mobile</title><line class="cls-1" x1="500.38" y1="247.82" x2="499.38" y2="1063"/><line class="cls-1" x1="499.88" y1="56" x2="499.88" y2="56"/><line class="cls-2" x1="499.88" y1="66.17" x2="499.88" y2="233.92"/><line class="cls-1" x1="499.88" y1="239" x2="499.88" y2="239"/><line class="cls-1" x1="499.88" y1="1063" x2="499.88" y2="1063"/><line class="cls-2" x1="499.88" y1="1073.17" x2="499.88" y2="1240.92"/><line class="cls-1" x1="499.88" y1="1246" x2="499.88" y2="1246"/><line class="cls-3" x1="499" y1="246.82" x2="937.07" y2="246.82"/><line class="cls-3" x1="499" y1="559" x2="937.07" y2="559"/><line class="cls-3" x1="499" y1="1063" x2="937.07" y2="1063"/><line class="cls-3" x1="213.75" y1="1249.25" x2="786" y2="1249.25"/><line class="cls-3" x1="61.93" y1="811" x2="500" y2="811"/><line class="cls-3" x1="61.93" y1="307" x2="500" y2="307"/><circle class="cls-4" cx="499.88" cy="246.06" r="13.78"/><circle class="cls-4" cx="499" cy="307" r="13.78"/><circle class="cls-4" cx="499" cy="559" r="13.78"/><circle class="cls-4" cx="499" cy="811" r="13.78"/><circle class="cls-4" cx="500" cy="1063" r="13.78"/><circle class="cls-4" cx="499.15" cy="1249.25" r="13.78"/><text class="cls-5" transform="translate(724.66 241.67)"><tspan xml:space="preserve">23 June 2018,   30 June 2018</tspan></text><text class="cls-5" transform="translate(61.93 299.22)">1 July 2018</text><text class="cls-5" transform="translate(844.73 553.22)">10 July 2018</text><text class="cls-5" transform="translate(61.93 804.22)">10 <tspan class="cls-6" x="22.28" y="0">A</tspan><tspan x="33.08" y="0">ugust 2018</tspan></text><text class="cls-5" transform="translate(748.15 1057.22)"><tspan class="cls-7">D</tspan><tspan x="12.06" y="0">ecision, 13 </tspan><tspan class="cls-8" x="94.39" y="0">A</tspan><tspan class="cls-9" x="105.19" y="0">ugust 2018</tspan></text><text class="cls-5" transform="translate(219.34 1239.47)"><tspan class="cls-10">F</tspan><tspan x="8.21" y="0">ee </tspan><tspan class="cls-7" x="30.06" y="0">D</tspan><tspan class="cls-11" x="42.12" y="0">eposi</tspan><tspan class="cls-12" x="82.6" y="0">t</tspan><tspan x="88.5" y="0">, 15 </tspan><tspan class="cls-6" x="118.33" y="0">A</tspan><tspan x="129.13" y="0">ugust 2018</tspan></text><text class="cls-13" transform="translate(280.97 358)">O<tspan class="cls-14" x="16.54" y="0">r</tspan><tspan class="cls-15" x="24.48" y="0">ie</tspan><tspan class="cls-16" x="42.12" y="0">n</tspan><tspan x="55.34" y="0">t</tspan><tspan class="cls-17" x="63.29" y="0">a</tspan><tspan class="cls-15" x="74.76" y="0">tion Classes</tspan></text><text class="cls-18" transform="translate(316.62 379.52)">O<tspan class="cls-19" x="11.02" y="0">r</tspan><tspan x="16.32" y="0">ie</tspan><tspan class="cls-20" x="28.08" y="0">n</tspan><tspan x="36.9" y="0">t</tspan><tspan class="cls-20" x="42.19" y="0">a</tspan><tspan x="49.84" y="0">tion Class </tspan><tspan class="cls-21" x="116.77" y="0">f</tspan><tspan x="121.23" y="0">or </tspan><tspan class="cls-22" x="138.64" y="0">A</tspan><tspan x="148.38" y="0">ll </tspan><tspan class="cls-22" x="-89.28" y="19.2">S</tspan><tspan x="-81.44" y="19.2">tude</tspan><tspan class="cls-20" x="-50.29" y="19.2">n</tspan><tspan x="-41.47" y="19.2">ts </tspan><tspan class="cls-21" x="-26.45" y="19.2">f</tspan><tspan x="-21.98" y="19.2">or </tspan><tspan class="cls-23" x="-4.58" y="19.2">I</tspan><tspan class="cls-20" x="-0.59" y="19.2">n</tspan><tspan x="8.22" y="19.2">t</tspan><tspan class="cls-24" x="13.52" y="19.2">r</tspan><tspan class="cls-25" x="18.59" y="19.2">odu</tspan><tspan class="cls-26" x="45.21" y="19.2">c</tspan><tspan x="52.59" y="19.2">tion &amp; Last d</tspan><tspan class="cls-27" x="135.07" y="19.2">a</tspan><tspan class="cls-28" x="142.72" y="19.2">t</tspan><tspan x="147.92" y="19.2">e </tspan><tspan x="69.29" y="38.4">of </tspan><tspan class="cls-29" x="86.14" y="38.4">A</tspan><tspan x="95.74" y="38.4">dmission</tspan></text><text class="cls-13" transform="translate(313.85 846)"><tspan class="cls-30">T</tspan><tspan x="10.22" y="0">est &amp; </tspan><tspan class="cls-31" x="64.39" y="0">I</tspan><tspan class="cls-16" x="70.37" y="0">n</tspan><tspan class="cls-32" x="83.59" y="0">t</tspan><tspan class="cls-33" x="91.39" y="0">e</tspan><tspan class="cls-34" x="103.41" y="0">r</tspan><tspan class="cls-33" x="111.86" y="0">view</tspan></text><text class="cls-18" transform="translate(222.01 867.52)"><tspan class="cls-35">T</tspan><tspan x="6.82" y="0">est and </tspan><tspan class="cls-23" x="58.86" y="0">I</tspan><tspan class="cls-20" x="62.85" y="0">n</tspan><tspan class="cls-28" x="71.66" y="0">t</tspan><tspan x="76.86" y="0">e</tspan><tspan class="cls-36" x="84.88" y="0">r</tspan><tspan class="cls-25" x="90.51" y="0">vie</tspan><tspan class="cls-28" x="109.97" y="0">w</tspan><tspan x="121.65" y="0">s will be </tspan><tspan class="cls-28" x="178.35" y="0">c</tspan><tspan x="185.42" y="0">ondu</tspan><tspan class="cls-37" x="220.92" y="0">c</tspan><tspan class="cls-38" x="228.3" y="0">t</tspan><tspan x="233.5" y="0">ed </tspan><tspan x="92.88" y="19.2">a</tspan><tspan class="cls-39" x="100.59" y="19.2">f</tspan><tspan class="cls-38" x="105.44" y="19.2">t</tspan><tspan class="cls-40" x="110.64" y="19.2">er one mo</tspan><tspan class="cls-27" x="178.48" y="19.2">n</tspan><tspan x="187.29" y="19.2">th classes</tspan></text><text class="cls-13" transform="translate(408.43 1295)">One <tspan class="cls-41" x="46.97" y="0">y</tspan><tspan x="58.03" y="0">ear so</tspan><tspan class="cls-39" x="117.24" y="0">f</tspan><tspan class="cls-42" x="124.51" y="0">t</tspan><tspan class="cls-16" x="132.67" y="0">w</tspan><tspan x="150.24" y="0">a</tspan><tspan class="cls-43" x="161.81" y="0">r</tspan><tspan x="169.41" y="0">e</tspan><tspan x="-5.96" y="28.8">en</tspan><tspan class="cls-44" x="19.38" y="28.8">g</tspan><tspan class="cls-15" x="32.65" y="28.8">inee</tspan><tspan class="cls-45" x="75.63" y="28.8">r</tspan><tspan x="83.58" y="28.8">ing </tspan><tspan class="cls-32" x="121.02" y="28.8">c</tspan><tspan x="131.63" y="28.8">ourse</tspan></text><text class="cls-18" transform="translate(361.29 1346.85)"><tspan class="cls-46">C</tspan><tspan x="9.1" y="0">onfi</tspan><tspan class="cls-19" x="35.14" y="0">r</tspan><tspan x="40.43" y="0">m En</tspan><tspan class="cls-43" x="73.92" y="0">r</tspan><tspan class="cls-40" x="78.99" y="0">ollme</tspan><tspan class="cls-27" x="116.69" y="0">n</tspan><tspan x="125.5" y="0">t </tspan><tspan class="cls-47" x="134.19" y="0">A</tspan><tspan class="cls-39" x="143.87" y="0">f</tspan><tspan class="cls-38" x="148.72" y="0">t</tspan><tspan x="153.92" y="0">er</tspan><tspan class="cls-48" x="167.17" y="0"> </tspan><tspan class="cls-35" x="169.9" y="0">T</tspan><tspan x="176.72" y="0">est &amp; </tspan><tspan class="cls-23" x="212.83" y="0">I</tspan><tspan class="cls-20" x="216.81" y="0">n</tspan><tspan class="cls-28" x="225.63" y="0">t</tspan><tspan x="230.83" y="0">e</tspan><tspan class="cls-49" x="238.84" y="0">r</tspan><tspan x="244.47" y="0">view </tspan><tspan x="60.21" y="19.2">&amp; </tspan><tspan class="cls-50" x="73.29" y="19.2">P</tspan><tspan class="cls-51" x="81.38" y="19.2">a</tspan><tspan x="88.97" y="19.2">y </tspan><tspan class="cls-21" x="99.89" y="19.2">f</tspan><tspan x="104.36" y="19.2">ee </tspan><tspan class="cls-21" x="123.78" y="19.2">f</tspan><tspan x="128.25" y="19.2">or the </tspan><tspan class="cls-38" x="171.24" y="19.2">c</tspan><tspan x="178.31" y="19.2">ourse</tspan></text><text class="cls-18" transform="translate(480.07 35.94)">S<tspan class="cls-52" x="7.89" y="0">T</tspan><tspan x="14.64" y="0">A</tspan><tspan class="cls-53" x="24.43" y="0">R</tspan><tspan x="33.18" y="0">T</tspan></text><text class="cls-13" transform="translate(527.2 628.64)">One mo<tspan class="cls-17" x="80.16" y="0">n</tspan><tspan class="cls-15" x="93.38" y="0">th t</tspan><tspan class="cls-14" x="127.68" y="0">r</tspan><tspan class="cls-15" x="135.62" y="0">ial session</tspan></text><text class="cls-18" transform="translate(527.2 650.16)"><tspan class="cls-54">A</tspan><tspan class="cls-39" x="9.68" y="0">f</tspan><tspan class="cls-28" x="14.53" y="0">t</tspan><tspan class="cls-25" x="19.73" y="0">er O</tspan><tspan class="cls-19" x="47.39" y="0">r</tspan><tspan x="52.69" y="0">ie</tspan><tspan class="cls-27" x="64.45" y="0">n</tspan><tspan x="73.26" y="0">t</tspan><tspan class="cls-55" x="78.56" y="0">a</tspan><tspan x="86.21" y="0">tion </tspan><tspan class="cls-43" x="116.3" y="0">r</tspan><tspan x="121.38" y="0">e</tspan><tspan class="cls-38" x="129.39" y="0">g</tspan><tspan class="cls-40" x="138.24" y="0">is</tspan><tspan class="cls-38" x="148.32" y="0">t</tspan><tspan x="153.52" y="0">er </tspan><tspan class="cls-24" x="170.16" y="0">y</tspan><tspan x="177.53" y="0">ourself </tspan><tspan class="cls-56" x="226.56" y="0">f</tspan><tspan x="231.02" y="0">or one mo</tspan><tspan class="cls-55" x="299.63" y="0">n</tspan><tspan class="cls-57" x="308.44" y="0">th </tspan><tspan x="0" y="19.2">t</tspan><tspan class="cls-19" x="5.3" y="19.2">r</tspan><tspan x="10.59" y="19.2">ial class in which </tspan><tspan class="cls-43" x="123.79" y="19.2">w</tspan><tspan class="cls-40" x="135.41" y="19.2">e e</tspan><tspan class="cls-20" x="154.83" y="19.2">v</tspan><tspan x="162.46" y="19.2">alu</tspan><tspan class="cls-27" x="182.77" y="19.2">a</tspan><tspan class="cls-28" x="190.41" y="19.2">t</tspan><tspan x="195.61" y="19.2">e </tspan><tspan class="cls-24" x="207.02" y="19.2">y</tspan><tspan x="214.4" y="19.2">our pe</tspan><tspan class="cls-58" x="257.74" y="19.2">r</tspan><tspan class="cls-59" x="263.45" y="19.2">f</tspan><tspan class="cls-57" x="267.92" y="19.2">o</tspan><tspan class="cls-60" x="276.7" y="19.2">r</tspan><tspan x="281.99" y="19.2">man</tspan><tspan class="cls-28" x="311.93" y="19.2">c</tspan><tspan x="319" y="19.2">e </tspan><tspan x="0" y="38.4">and </tspan><tspan class="cls-24" x="29.01" y="38.4">w</tspan><tspan class="cls-25" x="40.62" y="38.4">o</tspan><tspan class="cls-19" x="49.41" y="38.4">r</tspan><tspan class="cls-61" x="54.7" y="38.4">k</tspan><tspan class="cls-25" x="62.48" y="38.4">ing p</tspan><tspan class="cls-24" x="96.54" y="38.4">r</tspan><tspan x="101.61" y="38.4">o</tspan><tspan class="cls-28" x="110.4" y="38.4">g</tspan><tspan class="cls-43" x="119.25" y="38.4">r</tspan><tspan x="124.32" y="38.4">ess</tspan></text><text class="cls-13" transform="translate(527.2 1104.64)"><tspan class="cls-62">A</tspan><tspan x="14.4" y="0">dmission </tspan><tspan class="cls-45" x="109.77" y="0">D</tspan><tspan x="125.85" y="0">esicion</tspan></text><text class="cls-18" transform="translate(527.2 1126.16)"><tspan class="cls-63">I</tspan><tspan x="4.08" y="0">t depends on </tspan><tspan class="cls-31" x="95.61" y="0">I</tspan><tspan class="cls-27" x="99.6" y="0">n</tspan><tspan class="cls-28" x="108.41" y="0">t</tspan><tspan x="113.61" y="0">e</tspan><tspan class="cls-36" x="121.63" y="0">r</tspan><tspan x="127.26" y="0">view &amp;</tspan><tspan class="cls-48" x="171.56" y="0"> </tspan><tspan class="cls-35" x="174.3" y="0">T</tspan><tspan x="181.12" y="0">est</tspan></text></svg>